<?xml version="1.0" encoding="utf-8"?>
<svg version="1.1" xmlns="http://www.w3.org/2000/svg" xmlns:xlink="http://www.w3.org/1999/xlink">
<defs>
    <symbol id="remix" viewBox="0 0 445 512.13">
        <path fill="currentColor" fill-rule="nonzero" d="M0 512.13v-79.52h144.76c24.18 0 29.43 17.93 29.43 28.62v50.9H0zm425.45-117.19c4.61 59.17 4.61 86.91 4.61 117.19H293.15c0-6.6.12-12.63.24-18.75.37-19.01.76-38.84-2.32-78.89-4.08-58.63-29.32-71.66-75.75-71.66H0V236.15h221.84c58.64 0 87.96-17.84 87.96-65.07 0-41.53-29.32-66.69-87.96-66.69H0V0h246.27C379.03 0 445 62.7 445 162.86c0 74.92-46.42 123.78-109.14 131.92 52.94 10.59 83.89 40.72 89.59 100.16z"/>
    </symbol>
    <symbol id="react" viewBox="0 0 41 36">
        <path d="M40.5214 17.9856C40.5214 15.3358 37.203 12.8245 32.1154 11.2673C33.2894 6.08177 32.7678 1.95622 30.4686 0.63539C29.9386 0.325566 29.3186 0.178806 28.6422 0.178806V1.99699C29.017 1.99699 29.3186 2.07037 29.5714 2.20897C30.6802 2.84493 31.1614 5.26645 30.7862 8.38101C30.6966 9.14741 30.5498 9.95457 30.3706 10.7781C28.7726 10.3867 27.0278 10.0851 25.1934 9.88937C24.0926 8.38101 22.951 7.01125 21.8014 5.81273C24.4594 3.34229 26.9542 1.98883 28.6502 1.98883V0.170654C26.4082 0.170654 23.473 1.7687 20.505 4.54081C17.5374 1.78501 14.6022 0.203266 12.3598 0.203266V2.02145C14.0478 2.02145 16.5506 3.36673 19.2086 5.82089C18.0674 7.01941 16.9258 8.38101 15.8414 9.88937C13.9986 10.0851 12.2538 10.3867 10.6558 10.7862C10.4686 9.97089 10.3298 9.18001 10.2318 8.42177C9.84859 5.30721 10.3218 2.88569 11.4222 2.24157C11.667 2.09483 11.985 2.0296 12.3598 2.0296V0.211422C11.675 0.211422 11.0554 0.358178 10.5174 0.668006C8.22619 1.98883 7.71259 6.10626 8.89499 11.2754C3.82339 12.8409 0.521393 15.3439 0.521393 17.9856C0.521393 20.6354 3.8398 23.1466 8.9274 24.7039C7.7534 29.8894 8.27499 34.0149 10.5742 35.3358C11.1042 35.6456 11.7242 35.7923 12.409 35.7923C14.651 35.7923 17.5862 34.1943 20.5542 31.4222C23.5218 34.178 26.457 35.7597 28.699 35.7597C29.3842 35.7597 30.0038 35.613 30.5418 35.3031C32.833 33.9823 33.3466 29.8649 32.1642 24.6957C37.2194 23.1385 40.5214 20.6273 40.5214 17.9856ZM29.9058 12.5473C29.6042 13.5991 29.229 14.6835 28.805 15.7679C28.471 15.1156 28.1202 14.4634 27.737 13.8111C27.3622 13.1588 26.9626 12.5229 26.563 11.9032C27.7206 12.0745 28.8378 12.2864 29.9058 12.5473ZM26.1718 21.2306C25.5358 22.3313 24.8834 23.3749 24.2066 24.3451C22.9918 24.4511 21.7606 24.5082 20.5214 24.5082C19.2902 24.5082 18.059 24.4511 16.8526 24.3533C16.1758 23.3831 15.5154 22.3476 14.8794 21.2551C14.2598 20.187 13.697 19.1026 13.1834 18.01C13.689 16.9175 14.2598 15.8249 14.871 14.7569C15.507 13.6562 16.1594 12.6126 16.8362 11.6423C18.051 11.5363 19.2822 11.4793 20.5214 11.4793C21.7526 11.4793 22.9838 11.5363 24.1902 11.6342C24.867 12.6044 25.5274 13.6399 26.1634 14.7324C26.783 15.8005 27.3458 16.8849 27.8594 17.9774C27.3458 19.07 26.783 20.1625 26.1718 21.2306ZM28.805 20.1707C29.2454 21.2632 29.6206 22.3557 29.9302 23.4157C28.8622 23.6766 27.737 23.8967 26.571 24.0679C26.9706 23.4401 27.3702 22.796 27.7454 22.1356C28.1202 21.4833 28.471 20.8229 28.805 20.1707ZM20.5378 28.8702C19.7794 28.0875 19.021 27.2151 18.271 26.2611C19.005 26.2938 19.755 26.3182 20.5134 26.3182C21.2798 26.3182 22.0378 26.3019 22.7798 26.2611C22.0462 27.2151 21.2878 28.0875 20.5378 28.8702ZM14.4718 24.0679C13.3138 23.8967 12.197 23.6847 11.129 23.4238C11.4306 22.3721 11.8054 21.2877 12.2294 20.2033C12.5638 20.8555 12.9142 21.5078 13.2974 22.1601C13.6806 22.8123 14.0722 23.4483 14.4718 24.0679ZM20.497 7.10093C21.255 7.88365 22.0134 8.75605 22.7634 9.70998C22.0298 9.67737 21.2798 9.65293 20.5214 9.65293C19.755 9.65293 18.9966 9.66922 18.2546 9.70998C18.9886 8.75605 19.747 7.88365 20.497 7.10093ZM14.4634 11.9032C14.0642 12.531 13.6646 13.1751 13.2894 13.8356C12.9142 14.4878 12.5638 15.1401 12.2294 15.7923C11.7894 14.6998 11.4142 13.6073 11.1042 12.5473C12.1726 12.2946 13.2974 12.0745 14.4634 11.9032ZM7.08459 22.1111C4.19859 20.88 2.33139 19.2657 2.33139 17.9856C2.33139 16.7055 4.19859 15.083 7.08459 13.86C7.78579 13.5583 8.55219 13.2893 9.34339 13.0365C9.80779 14.6346 10.4194 16.2979 11.1778 18.0019C10.4278 19.6978 9.82419 21.3529 9.36779 22.9428C8.56059 22.69 7.79419 22.4128 7.08459 22.1111ZM11.4714 33.7622C10.3626 33.1262 9.8814 30.7047 10.2566 27.5901C10.3462 26.8237 10.493 26.0166 10.6722 25.1931C12.2702 25.5844 14.015 25.8861 15.8494 26.0818C16.9502 27.5901 18.0918 28.9599 19.2414 30.1584C16.5834 32.6289 14.0886 33.9823 12.3926 33.9823C12.0258 33.9742 11.7158 33.9008 11.4714 33.7622ZM30.811 27.5494C31.1942 30.6639 30.721 33.0855 29.6206 33.7296C29.3758 33.8763 29.0578 33.9415 28.683 33.9415C26.995 33.9415 24.4922 32.5963 21.8342 30.1421C22.9754 28.9436 24.117 27.582 25.2014 26.0736C27.0442 25.8779 28.789 25.5763 30.387 25.1768C30.5742 26.0003 30.721 26.7911 30.811 27.5494ZM33.9498 22.1111C33.2486 22.4128 32.4822 22.6819 31.6914 22.9346C31.2266 21.3366 30.615 19.6733 29.857 17.9693C30.607 16.2734 31.2102 14.6183 31.667 13.0284C32.4742 13.2811 33.2406 13.5583 33.9582 13.86C36.8442 15.0912 38.7114 16.7055 38.7114 17.9856C38.7034 19.2657 36.8362 20.8881 33.9498 22.1111Z" />
        <path d="M20.5134 21.7133C22.5714 21.7133 24.2394 20.0451 24.2394 17.9873C24.2394 15.9294 22.5714 14.2612 20.5134 14.2612C18.4558 14.2612 16.7874 15.9294 16.7874 17.9873C16.7874 20.0451 18.4558 21.7133 20.5134 21.7133Z" />
    </symbol>
    <symbol id="nextjs" viewBox="0 0 41 40">
        <path d="M19.1914 0.0107542C19.1054 0.0185659 18.8322 0.0459068 18.5862 0.0654364C12.911 0.577104 7.59499 3.63931 4.22819 8.34588C2.35339 10.9628 1.15419 13.9313 0.700995 17.0755C0.540995 18.173 0.521393 18.4972 0.521393 19.9854C0.521393 21.4735 0.540995 21.7977 0.700995 22.8952C1.78699 30.3984 7.12619 36.7025 14.3678 39.0382C15.6646 39.4561 17.0314 39.7412 18.5862 39.9131C19.1914 39.9795 21.8082 39.9795 22.4138 39.9131C25.097 39.6163 27.3702 38.9523 29.6122 37.8078C29.9562 37.6321 30.0226 37.5852 29.9754 37.5462C29.9442 37.5227 28.4798 35.5581 26.7218 33.1833L23.527 28.8673L19.5234 22.9421C17.3206 19.6846 15.5082 17.0208 15.4926 17.0208C15.477 17.0169 15.4614 19.6495 15.4534 22.864C15.4418 28.4924 15.4378 28.7189 15.3678 28.8517C15.2662 29.0431 15.1878 29.1212 15.0238 29.2071C14.899 29.2696 14.7894 29.2813 14.1998 29.2813H13.5242L13.3442 29.1681C13.227 29.0938 13.1414 28.9962 13.0826 28.8829L13.0006 28.7072L13.0086 20.8759L13.0202 13.0407L13.1414 12.8884C13.2038 12.8064 13.3366 12.7009 13.4302 12.6502C13.5906 12.572 13.653 12.5642 14.3286 12.5642C15.1254 12.5642 15.2582 12.5955 15.4654 12.822C15.5238 12.8845 17.6914 16.1498 20.285 20.083C22.8786 24.0162 26.425 29.3868 28.167 32.0232L31.331 36.8158L31.491 36.7103C32.909 35.7885 34.4086 34.4761 35.5962 33.1091C38.123 30.207 39.7518 26.6683 40.2986 22.8952C40.459 21.7977 40.4786 21.4735 40.4786 19.9854C40.4786 18.4972 40.459 18.173 40.2986 17.0755C39.213 9.57232 33.8738 3.26825 26.6322 0.93254C25.355 0.518516 23.9958 0.233389 22.4722 0.0615304C22.0974 0.0224718 19.5158 -0.0204928 19.1914 0.0107542ZM27.3702 12.0955C27.5578 12.1892 27.7102 12.3689 27.765 12.5564C27.7962 12.658 27.8038 14.8296 27.7962 19.7237L27.7842 26.7464L26.5462 24.8482L25.3042 22.9499V17.845C25.3042 14.5445 25.3198 12.6892 25.343 12.5994C25.4058 12.3806 25.5422 12.2088 25.7298 12.1072C25.8902 12.0252 25.9486 12.0174 26.5618 12.0174C27.1398 12.0174 27.2414 12.0252 27.3702 12.0955Z" />
    </symbol>
    <symbol id="picker" viewBox="0 0 32 32">
        <g fill="currentColor"><path d="m10 20c-1.657 0-3 1.343-3 3s1.343 3 3 3 3-1.343 3-3-1.343-3-3-3zm0 4c-.551 0-1-.449-1-1s.449-1 1-1 1 .449 1 1-.449 1-1 1z"/><circle cx="10" cy="16" r="3"/><path d="m10 6c-1.657 0-3 1.343-3 3s1.343 3 3 3 3-1.343 3-3-1.343-3-3-3zm0 4c-.551 0-1-.449-1-1s.449-1 1-1 1 .449 1 1-.449 1-1 1z"/><path d="m15 8h10v2h-10z"/><path d="m15 15h10v2h-10z"/><path d="m15 22h10v2h-10z"/><path d="m10 20c-1.657 0-3 1.343-3 3s1.343 3 3 3 3-1.343 3-3-1.343-3-3-3zm0 4c-.551 0-1-.449-1-1s.449-1 1-1 1 .449 1 1-.449 1-1 1z"/><circle cx="10" cy="16" r="3"/><path d="m10 6c-1.657 0-3 1.343-3 3s1.343 3 3 3 3-1.343 3-3-1.343-3-3-3zm0 4c-.551 0-1-.449-1-1s.449-1 1-1 1 .449 1 1-.449 1-1 1z"/><path d="m15 8h10v2h-10z"/><path d="m15 15h10v2h-10z"/><path d="m15 22h10v2h-10z"/></g>
    </symbol>
    <symbol id="languages" viewBox="0 0 32 32">
        <path d="M32.032 16c0-8.501-6.677-15.472-15.072-15.969-0.173-0.019-0.346-0.032-0.523-0.032-0.052 0-0.104 0.005-0.156 0.007-0.093-0.002-0.186-0.007-0.281-0.007-8.84 0-16.032 7.178-16.032 16.001s7.192 16.001 16.032 16.001c0.094 0 0.188-0.006 0.281-0.008 0.052 0.002 0.104 0.008 0.156 0.008 0.176 0 0.349-0.012 0.523-0.032 8.395-0.497 15.072-7.468 15.072-15.969zM29.049 21.151c-0.551-0.16-1.935-0.507-4.377-0.794 0.202-1.381 0.313-2.84 0.313-4.357 0-1.196-0.069-2.354-0.197-3.469 3.094-0.37 4.45-0.835 4.54-0.867l-0.372-1.050c0.695 1.659 1.080 3.478 1.080 5.386 0 1.818-0.352 3.555-0.987 5.151zM8.921 16c0-1.119 0.074-2.212 0.21-3.263 1.621 0.127 3.561 0.222 5.839 0.243v6.939c-2.219 0.021-4.114 0.111-5.709 0.234-0.22-1.319-0.34-2.715-0.34-4.154zM16.967 2.132c2.452 0.711 4.552 4.115 5.492 8.628-1.512 0.12-3.332 0.209-5.492 0.229v-8.857zM14.971 2.156v8.832c-2.136-0.021-3.965-0.109-5.502-0.226 0.96-4.457 3.076-7.836 5.502-8.606zM14.971 21.913l0 7.929c-2.263-0.718-4.256-3.705-5.293-7.719 1.492-0.11 3.253-0.189 5.292-0.21zM16.967 29.868l-0-7.955c2.061 0.020 3.814 0.102 5.288 0.217-1.019 4.067-3 7.076-5.288 7.738zM16.967 19.92l0-6.939c2.291-0.021 4.218-0.118 5.818-0.25 0.131 1.053 0.203 2.147 0.203 3.268 0 1.442-0.116 2.84-0.329 4.16-1.575-0.128-3.462-0.219-5.692-0.24zM28.588 9.81c-0.302 0.094-1.564 0.453-4.094 0.751-0.564-2.998-1.584-5.561-2.91-7.412 3.048 1.325 5.535 3.697 7.005 6.661zM11.213 2.831c-1.632 1.873-2.963 4.568-3.691 7.754-2.265-0.245-3.623-0.534-4.166-0.665 1.585-3.27 4.407-5.836 7.856-7.088zM2.614 11.787c0.385 0.104 1.841 0.467 4.549 0.766-0.155 1.107-0.24 2.26-0.24 3.447 0 1.509 0.136 2.96 0.383 4.334-2.325 0.251-3.755 0.552-4.396 0.706-0.607-1.566-0.944-3.264-0.944-5.041 0-1.467 0.228-2.883 0.649-4.213zM3.784 22.886c0.727-0.154 2.029-0.39 3.956-0.591 0.759 2.803 1.993 5.175 3.473 6.874-3.16-1.148-5.79-3.398-7.429-6.282v0zM21.583 28.849c1.195-1.665 2.14-3.907 2.728-6.525 1.982 0.227 3.226 0.494 3.853 0.652-1.5 2.596-3.808 4.669-6.581 5.873z"></path>
    </symbol>
    <symbol id="techspecs" viewBox="0 0 175 220">
        <path class="a2" d="M69.539,119.774V0L13.23,56.351v119.39Z" transform="translate(43.121)"/><path class="b2" d="M56.351,0,0,56.351H56.351V0Z"/><path class="a2" d="M69.539,0,13.23,56.351h87.487L157.069,0Z" transform="translate(43.121)"/><path class="c2" d="M69.539,18.639,13.23,74.608V13.23H69.539Z" transform="translate(43.121 43.121)"/>
    </symbol>
    <symbol id="faq" viewBox="0 0 34 34">
        <path
            d="M17.0008 0.690674C7.96953 0.690674 0.691406 7.9688 0.691406 17C0.691406 26.0313 7.96953 33.3625 17.0008 33.3625C26.032 33.3625 33.3633 26.0313 33.3633 17C33.3633 7.9688 26.032 0.690674 17.0008 0.690674ZM17.0008 31.5032C9.03203 31.5032 2.55078 24.9688 2.55078 17C2.55078 9.0313 9.03203 2.55005 17.0008 2.55005C24.9695 2.55005 31.5039 9.0313 31.5039 17C31.5039 24.9688 24.9695 31.5032 17.0008 31.5032Z" />
        <path
            d="M17.9039 6.32194C16.3633 6.05631 14.8227 6.48131 13.707 7.43756C12.5383 8.39381 11.8477 9.82819 11.8477 11.3688C11.8477 11.9532 11.9539 12.5376 12.1664 13.0688C12.3258 13.5469 12.857 13.8126 13.3352 13.6532C13.8133 13.4938 14.0789 12.9626 13.9195 12.4844C13.8133 12.1126 13.707 11.7938 13.707 11.3688C13.707 10.4126 14.132 9.50944 14.8758 8.87194C15.6195 8.23444 16.5758 7.96881 17.5852 8.18131C18.9133 8.39381 19.9758 9.50944 20.1883 10.7844C20.4539 12.3251 19.657 13.8126 18.2227 14.3969C16.8945 14.9282 16.0445 16.2563 16.0445 17.7969V21.1969C16.0445 21.7282 16.4695 22.1532 17.0008 22.1532C17.532 22.1532 17.957 21.7282 17.957 21.1969V17.7969C17.957 17.0532 18.382 16.3626 18.9664 16.1501C21.1977 15.2469 22.4727 12.9094 22.0477 10.4657C21.6758 8.39381 19.9758 6.69381 17.9039 6.32194Z" />
        <path
            d="M17.0531 24.8625H16.8937C16.3625 24.8625 15.9375 25.2875 15.9375 25.8188C15.9375 26.35 16.3625 26.7751 16.8937 26.7751H17.0531C17.5844 26.7751 18.0094 26.35 18.0094 25.8188C18.0094 25.2875 17.5844 24.8625 17.0531 24.8625Z" />
    </symbol>
    <symbol id="extension" viewBox="0 0 37 37">
        <path
            d="M12.355 2.0614H5.21129C3.29879 2.0614 1.72379 3.6364 1.72379 5.5489V12.6927C1.72379 14.6052 3.29879 16.1802 5.21129 16.1802H12.355C14.2675 16.1802 15.8425 14.6052 15.8425 12.6927V5.60515C15.8988 3.6364 14.3238 2.0614 12.355 2.0614ZM13.3675 12.7489C13.3675 13.3114 12.9175 13.7614 12.355 13.7614H5.21129C4.64879 13.7614 4.19879 13.3114 4.19879 12.7489V5.60515C4.19879 5.04265 4.64879 4.59265 5.21129 4.59265H12.355C12.9175 4.59265 13.3675 5.04265 13.3675 5.60515V12.7489Z"
            fill="currentColor" />
        <path
            d="M31.0863 2.0614H23.9425C22.03 2.0614 20.455 3.6364 20.455 5.5489V12.6927C20.455 14.6052 22.03 16.1802 23.9425 16.1802H31.0863C32.9988 16.1802 34.5738 14.6052 34.5738 12.6927V5.60515C34.5738 3.6364 32.9988 2.0614 31.0863 2.0614ZM32.0988 12.7489C32.0988 13.3114 31.6488 13.7614 31.0863 13.7614H23.9425C23.38 13.7614 22.93 13.3114 22.93 12.7489V5.60515C22.93 5.04265 23.38 4.59265 23.9425 4.59265H31.0863C31.6488 4.59265 32.0988 5.04265 32.0988 5.60515V12.7489Z"
            fill="currentColor" />
        <path
            d="M12.355 20.0051H5.21129C3.29879 20.0051 1.72379 21.5801 1.72379 23.4926V30.6364C1.72379 32.5489 3.29879 34.1239 5.21129 34.1239H12.355C14.2675 34.1239 15.8425 32.5489 15.8425 30.6364V23.5489C15.8988 21.5801 14.3238 20.0051 12.355 20.0051ZM13.3675 30.6926C13.3675 31.2551 12.9175 31.7051 12.355 31.7051H5.21129C4.64879 31.7051 4.19879 31.2551 4.19879 30.6926V23.5489C4.19879 22.9864 4.64879 22.5364 5.21129 22.5364H12.355C12.9175 22.5364 13.3675 22.9864 13.3675 23.5489V30.6926Z"
            fill="currentColor" />
        <path
            d="M31.0863 20.0051H23.9425C22.03 20.0051 20.455 21.5801 20.455 23.4926V30.6364C20.455 32.5489 22.03 34.1239 23.9425 34.1239H31.0863C32.9988 34.1239 34.5738 32.5489 34.5738 30.6364V23.5489C34.5738 21.5801 32.9988 20.0051 31.0863 20.0051ZM32.0988 30.6926C32.0988 31.2551 31.6488 31.7051 31.0863 31.7051H23.9425C23.38 31.7051 22.93 31.2551 22.93 30.6926V23.5489C22.93 22.9864 23.38 22.5364 23.9425 22.5364H31.0863C31.6488 22.5364 32.0988 22.9864 32.0988 23.5489V30.6926Z" fill="currentColor" />
    </symbol>
    <symbol id="dots" viewBox="0 0 134 106">
        <circle cx="1.66667" cy="104" r="1.66667" transform="rotate(-90 1.66667 104)"
            fill="white" />
        <circle cx="16.3333" cy="104" r="1.66667" transform="rotate(-90 16.3333 104)"
            fill="white" />
        <circle cx="31" cy="104" r="1.66667" transform="rotate(-90 31 104)" fill="white" />
        <circle cx="45.6667" cy="104" r="1.66667" transform="rotate(-90 45.6667 104)"
            fill="white" />
        <circle cx="60.3333" cy="104" r="1.66667" transform="rotate(-90 60.3333 104)"
            fill="white" />
        <circle cx="88.6667" cy="104" r="1.66667" transform="rotate(-90 88.6667 104)"
            fill="white" />
        <circle cx="117.667" cy="104" r="1.66667" transform="rotate(-90 117.667 104)"
            fill="white" />
        <circle cx="74.6667" cy="104" r="1.66667" transform="rotate(-90 74.6667 104)"
            fill="white" />
        <circle cx="103" cy="104" r="1.66667" transform="rotate(-90 103 104)" fill="white" />
        <circle cx="132" cy="104" r="1.66667" transform="rotate(-90 132 104)" fill="white" />
        <circle cx="1.66667" cy="89.3333" r="1.66667" transform="rotate(-90 1.66667 89.3333)"
            fill="white" />
        <circle cx="16.3333" cy="89.3333" r="1.66667" transform="rotate(-90 16.3333 89.3333)"
            fill="white" />
        <circle cx="31" cy="89.3333" r="1.66667" transform="rotate(-90 31 89.3333)"
            fill="white" />
        <circle cx="45.6667" cy="89.3333" r="1.66667" transform="rotate(-90 45.6667 89.3333)"
            fill="white" />
        <circle cx="60.3333" cy="89.3338" r="1.66667" transform="rotate(-90 60.3333 89.3338)"
            fill="white" />
        <circle cx="88.6667" cy="89.3338" r="1.66667" transform="rotate(-90 88.6667 89.3338)"
            fill="white" />
        <circle cx="117.667" cy="89.3338" r="1.66667" transform="rotate(-90 117.667 89.3338)"
            fill="white" />
        <circle cx="74.6667" cy="89.3338" r="1.66667" transform="rotate(-90 74.6667 89.3338)"
            fill="white" />
        <circle cx="103" cy="89.3338" r="1.66667" transform="rotate(-90 103 89.3338)"
            fill="white" />
        <circle cx="132" cy="89.3338" r="1.66667" transform="rotate(-90 132 89.3338)"
            fill="white" />
        <circle cx="1.66667" cy="74.6673" r="1.66667" transform="rotate(-90 1.66667 74.6673)"
            fill="white" />
        <circle cx="1.66667" cy="31.0003" r="1.66667" transform="rotate(-90 1.66667 31.0003)"
            fill="white" />
        <circle cx="16.3333" cy="74.6668" r="1.66667" transform="rotate(-90 16.3333 74.6668)"
            fill="white" />
        <circle cx="16.3333" cy="31.0003" r="1.66667" transform="rotate(-90 16.3333 31.0003)"
            fill="white" />
        <circle cx="31" cy="74.6668" r="1.66667" transform="rotate(-90 31 74.6668)"
            fill="white" />
        <circle cx="31" cy="31.0003" r="1.66667" transform="rotate(-90 31 31.0003)"
            fill="white" />
        <circle cx="45.6667" cy="74.6668" r="1.66667" transform="rotate(-90 45.6667 74.6668)"
            fill="white" />
        <circle cx="45.6667" cy="31.0003" r="1.66667" transform="rotate(-90 45.6667 31.0003)"
            fill="white" />
        <circle cx="60.3333" cy="74.6668" r="1.66667" transform="rotate(-90 60.3333 74.6668)"
            fill="white" />
        <circle cx="60.3333" cy="31.0001" r="1.66667" transform="rotate(-90 60.3333 31.0001)"
            fill="white" />
        <circle cx="88.6667" cy="74.6668" r="1.66667" transform="rotate(-90 88.6667 74.6668)"
            fill="white" />
        <circle cx="88.6667" cy="31.0001" r="1.66667" transform="rotate(-90 88.6667 31.0001)"
            fill="white" />
        <circle cx="117.667" cy="74.6668" r="1.66667" transform="rotate(-90 117.667 74.6668)"
            fill="white" />
        <circle cx="117.667" cy="31.0001" r="1.66667" transform="rotate(-90 117.667 31.0001)"
            fill="white" />
        <circle cx="74.6667" cy="74.6668" r="1.66667" transform="rotate(-90 74.6667 74.6668)"
            fill="white" />
        <circle cx="74.6667" cy="31.0001" r="1.66667" transform="rotate(-90 74.6667 31.0001)"
            fill="white" />
        <circle cx="103" cy="74.6668" r="1.66667" transform="rotate(-90 103 74.6668)"
            fill="white" />
        <circle cx="103" cy="31.0001" r="1.66667" transform="rotate(-90 103 31.0001)"
            fill="white" />
        <circle cx="132" cy="74.6668" r="1.66667" transform="rotate(-90 132 74.6668)"
            fill="white" />
        <circle cx="132" cy="31.0001" r="1.66667" transform="rotate(-90 132 31.0001)"
            fill="white" />
        <circle cx="1.66667" cy="60.0003" r="1.66667" transform="rotate(-90 1.66667 60.0003)"
            fill="white" />
        <circle cx="1.66667" cy="16.3336" r="1.66667" transform="rotate(-90 1.66667 16.3336)"
            fill="white" />
        <circle cx="16.3333" cy="60.0003" r="1.66667" transform="rotate(-90 16.3333 60.0003)"
            fill="white" />
        <circle cx="16.3333" cy="16.3336" r="1.66667" transform="rotate(-90 16.3333 16.3336)"
            fill="white" />
        <circle cx="31" cy="60.0003" r="1.66667" transform="rotate(-90 31 60.0003)"
            fill="white" />
        <circle cx="31" cy="16.3336" r="1.66667" transform="rotate(-90 31 16.3336)"
            fill="white" />
        <circle cx="45.6667" cy="60.0003" r="1.66667" transform="rotate(-90 45.6667 60.0003)"
            fill="white" />
        <circle cx="45.6667" cy="16.3336" r="1.66667" transform="rotate(-90 45.6667 16.3336)"
            fill="white" />
        <circle cx="60.3333" cy="60.0003" r="1.66667" transform="rotate(-90 60.3333 60.0003)"
            fill="white" />
        <circle cx="60.3333" cy="16.3336" r="1.66667" transform="rotate(-90 60.3333 16.3336)"
            fill="white" />
        <circle cx="88.6667" cy="60.0003" r="1.66667" transform="rotate(-90 88.6667 60.0003)"
            fill="white" />
        <circle cx="88.6667" cy="16.3336" r="1.66667" transform="rotate(-90 88.6667 16.3336)"
            fill="white" />
        <circle cx="117.667" cy="60.0003" r="1.66667" transform="rotate(-90 117.667 60.0003)"
            fill="white" />
        <circle cx="117.667" cy="16.3336" r="1.66667" transform="rotate(-90 117.667 16.3336)"
            fill="white" />
        <circle cx="74.6667" cy="60.0003" r="1.66667" transform="rotate(-90 74.6667 60.0003)"
            fill="white" />
        <circle cx="74.6667" cy="16.3336" r="1.66667" transform="rotate(-90 74.6667 16.3336)"
            fill="white" />
        <circle cx="103" cy="60.0003" r="1.66667" transform="rotate(-90 103 60.0003)"
            fill="white" />
        <circle cx="103" cy="16.3336" r="1.66667" transform="rotate(-90 103 16.3336)"
            fill="white" />
        <circle cx="132" cy="60.0003" r="1.66667" transform="rotate(-90 132 60.0003)"
            fill="white" />
        <circle cx="132" cy="16.3336" r="1.66667" transform="rotate(-90 132 16.3336)"
            fill="white" />
        <circle cx="1.66667" cy="45.3336" r="1.66667" transform="rotate(-90 1.66667 45.3336)"
            fill="white" />
        <circle cx="1.66667" cy="1.66683" r="1.66667" transform="rotate(-90 1.66667 1.66683)"
            fill="white" />
        <circle cx="16.3333" cy="45.3336" r="1.66667" transform="rotate(-90 16.3333 45.3336)"
            fill="white" />
        <circle cx="16.3333" cy="1.66683" r="1.66667" transform="rotate(-90 16.3333 1.66683)"
            fill="white" />
        <circle cx="31" cy="45.3336" r="1.66667" transform="rotate(-90 31 45.3336)"
            fill="white" />
        <circle cx="31" cy="1.66683" r="1.66667" transform="rotate(-90 31 1.66683)"
            fill="white" />
        <circle cx="45.6667" cy="45.3336" r="1.66667" transform="rotate(-90 45.6667 45.3336)"
            fill="white" />
        <circle cx="45.6667" cy="1.66683" r="1.66667" transform="rotate(-90 45.6667 1.66683)"
            fill="white" />
        <circle cx="60.3333" cy="45.3338" r="1.66667" transform="rotate(-90 60.3333 45.3338)"
            fill="white" />
        <circle cx="60.3333" cy="1.66707" r="1.66667" transform="rotate(-90 60.3333 1.66707)"
            fill="white" />
        <circle cx="88.6667" cy="45.3338" r="1.66667" transform="rotate(-90 88.6667 45.3338)"
            fill="white" />
        <circle cx="88.6667" cy="1.66707" r="1.66667" transform="rotate(-90 88.6667 1.66707)"
            fill="white" />
        <circle cx="117.667" cy="45.3338" r="1.66667" transform="rotate(-90 117.667 45.3338)"
            fill="white" />
        <circle cx="117.667" cy="1.66707" r="1.66667" transform="rotate(-90 117.667 1.66707)"
            fill="white" />
        <circle cx="74.6667" cy="45.3338" r="1.66667" transform="rotate(-90 74.6667 45.3338)"
            fill="white" />
        <circle cx="74.6667" cy="1.66707" r="1.66667" transform="rotate(-90 74.6667 1.66707)"
            fill="white" />
        <circle cx="103" cy="45.3338" r="1.66667" transform="rotate(-90 103 45.3338)"
            fill="white" />
        <circle cx="103" cy="1.66707" r="1.66667" transform="rotate(-90 103 1.66707)"
            fill="white" />
        <circle cx="132" cy="45.3338" r="1.66667" transform="rotate(-90 132 45.3338)"
            fill="white" />
        <circle cx="132" cy="1.66707" r="1.66667" transform="rotate(-90 132 1.66707)"
            fill="white" />
    </symbol>
</defs>
</svg>