<?xml version="1.0" encoding="utf-8"?>
<svg version="1.1" xmlns="http://www.w3.org/2000/svg" xmlns:xlink="http://www.w3.org/1999/xlink">
<defs>
    <symbol id="remix" viewBox="0 0 445 512.13">
        <path fill="currentColor" fill-rule="nonzero" d="M0 512.13v-79.52h144.76c24.18 0 29.43 17.93 29.43 28.62v50.9H0zm425.45-117.19c4.61 59.17 4.61 86.91 4.61 117.19H293.15c0-6.6.12-12.63.24-18.75.37-19.01.76-38.84-2.32-78.89-4.08-58.63-29.32-71.66-75.75-71.66H0V236.15h221.84c58.64 0 87.96-17.84 87.96-65.07 0-41.53-29.32-66.69-87.96-66.69H0V0h246.27C379.03 0 445 62.7 445 162.86c0 74.92-46.42 123.78-109.14 131.92 52.94 10.59 83.89 40.72 89.59 100.16z"/>
    </symbol>
    <symbol id="react" viewBox="0 0 41 36">
        <path d="M40.5214 17.9856C40.5214 15.3358 37.203 12.8245 32.1154 11.2673C33.2894 6.08177 32.7678 1.95622 30.4686 0.63539C29.9386 0.325566 29.3186 0.178806 28.6422 0.178806V1.99699C29.017 1.99699 29.3186 2.07037 29.5714 2.20897C30.6802 2.84493 31.1614 5.26645 30.7862 8.38101C30.6966 9.14741 30.5498 9.95457 30.3706 10.7781C28.7726 10.3867 27.0278 10.0851 25.1934 9.88937C24.0926 8.38101 22.951 7.01125 21.8014 5.81273C24.4594 3.34229 26.9542 1.98883 28.6502 1.98883V0.170654C26.4082 0.170654 23.473 1.7687 20.505 4.54081C17.5374 1.78501 14.6022 0.203266 12.3598 0.203266V2.02145C14.0478 2.02145 16.5506 3.36673 19.2086 5.82089C18.0674 7.01941 16.9258 8.38101 15.8414 9.88937C13.9986 10.0851 12.2538 10.3867 10.6558 10.7862C10.4686 9.97089 10.3298 9.18001 10.2318 8.42177C9.84859 5.30721 10.3218 2.88569 11.4222 2.24157C11.667 2.09483 11.985 2.0296 12.3598 2.0296V0.211422C11.675 0.211422 11.0554 0.358178 10.5174 0.668006C8.22619 1.98883 7.71259 6.10626 8.89499 11.2754C3.82339 12.8409 0.521393 15.3439 0.521393 17.9856C0.521393 20.6354 3.8398 23.1466 8.9274 24.7039C7.7534 29.8894 8.27499 34.0149 10.5742 35.3358C11.1042 35.6456 11.7242 35.7923 12.409 35.7923C14.651 35.7923 17.5862 34.1943 20.5542 31.4222C23.5218 34.178 26.457 35.7597 28.699 35.7597C29.3842 35.7597 30.0038 35.613 30.5418 35.3031C32.833 33.9823 33.3466 29.8649 32.1642 24.6957C37.2194 23.1385 40.5214 20.6273 40.5214 17.9856ZM29.9058 12.5473C29.6042 13.5991 29.229 14.6835 28.805 15.7679C28.471 15.1156 28.1202 14.4634 27.737 13.8111C27.3622 13.1588 26.9626 12.5229 26.563 11.9032C27.7206 12.0745 28.8378 12.2864 29.9058 12.5473ZM26.1718 21.2306C25.5358 22.3313 24.8834 23.3749 24.2066 24.3451C22.9918 24.4511 21.7606 24.5082 20.5214 24.5082C19.2902 24.5082 18.059 24.4511 16.8526 24.3533C16.1758 23.3831 15.5154 22.3476 14.8794 21.2551C14.2598 20.187 13.697 19.1026 13.1834 18.01C13.689 16.9175 14.2598 15.8249 14.871 14.7569C15.507 13.6562 16.1594 12.6126 16.8362 11.6423C18.051 11.5363 19.2822 11.4793 20.5214 11.4793C21.7526 11.4793 22.9838 11.5363 24.1902 11.6342C24.867 12.6044 25.5274 13.6399 26.1634 14.7324C26.783 15.8005 27.3458 16.8849 27.8594 17.9774C27.3458 19.07 26.783 20.1625 26.1718 21.2306ZM28.805 20.1707C29.2454 21.2632 29.6206 22.3557 29.9302 23.4157C28.8622 23.6766 27.737 23.8967 26.571 24.0679C26.9706 23.4401 27.3702 22.796 27.7454 22.1356C28.1202 21.4833 28.471 20.8229 28.805 20.1707ZM20.5378 28.8702C19.7794 28.0875 19.021 27.2151 18.271 26.2611C19.005 26.2938 19.755 26.3182 20.5134 26.3182C21.2798 26.3182 22.0378 26.3019 22.7798 26.2611C22.0462 27.2151 21.2878 28.0875 20.5378 28.8702ZM14.4718 24.0679C13.3138 23.8967 12.197 23.6847 11.129 23.4238C11.4306 22.3721 11.8054 21.2877 12.2294 20.2033C12.5638 20.8555 12.9142 21.5078 13.2974 22.1601C13.6806 22.8123 14.0722 23.4483 14.4718 24.0679ZM20.497 7.10093C21.255 7.88365 22.0134 8.75605 22.7634 9.70998C22.0298 9.67737 21.2798 9.65293 20.5214 9.65293C19.755 9.65293 18.9966 9.66922 18.2546 9.70998C18.9886 8.75605 19.747 7.88365 20.497 7.10093ZM14.4634 11.9032C14.0642 12.531 13.6646 13.1751 13.2894 13.8356C12.9142 14.4878 12.5638 15.1401 12.2294 15.7923C11.7894 14.6998 11.4142 13.6073 11.1042 12.5473C12.1726 12.2946 13.2974 12.0745 14.4634 11.9032ZM7.08459 22.1111C4.19859 20.88 2.33139 19.2657 2.33139 17.9856C2.33139 16.7055 4.19859 15.083 7.08459 13.86C7.78579 13.5583 8.55219 13.2893 9.34339 13.0365C9.80779 14.6346 10.4194 16.2979 11.1778 18.0019C10.4278 19.6978 9.82419 21.3529 9.36779 22.9428C8.56059 22.69 7.79419 22.4128 7.08459 22.1111ZM11.4714 33.7622C10.3626 33.1262 9.8814 30.7047 10.2566 27.5901C10.3462 26.8237 10.493 26.0166 10.6722 25.1931C12.2702 25.5844 14.015 25.8861 15.8494 26.0818C16.9502 27.5901 18.0918 28.9599 19.2414 30.1584C16.5834 32.6289 14.0886 33.9823 12.3926 33.9823C12.0258 33.9742 11.7158 33.9008 11.4714 33.7622ZM30.811 27.5494C31.1942 30.6639 30.721 33.0855 29.6206 33.7296C29.3758 33.8763 29.0578 33.9415 28.683 33.9415C26.995 33.9415 24.4922 32.5963 21.8342 30.1421C22.9754 28.9436 24.117 27.582 25.2014 26.0736C27.0442 25.8779 28.789 25.5763 30.387 25.1768C30.5742 26.0003 30.721 26.7911 30.811 27.5494ZM33.9498 22.1111C33.2486 22.4128 32.4822 22.6819 31.6914 22.9346C31.2266 21.3366 30.615 19.6733 29.857 17.9693C30.607 16.2734 31.2102 14.6183 31.667 13.0284C32.4742 13.2811 33.2406 13.5583 33.9582 13.86C36.8442 15.0912 38.7114 16.7055 38.7114 17.9856C38.7034 19.2657 36.8362 20.8881 33.9498 22.1111Z" />
        <path d="M20.5134 21.7133C22.5714 21.7133 24.2394 20.0451 24.2394 17.9873C24.2394 15.9294 22.5714 14.2612 20.5134 14.2612C18.4558 14.2612 16.7874 15.9294 16.7874 17.9873C16.7874 20.0451 18.4558 21.7133 20.5134 21.7133Z" />
    </symbol>
    <symbol id="nextjs" viewBox="0 0 41 40">
        <path d="M19.1914 0.0107542C19.1054 0.0185659 18.8322 0.0459068 18.5862 0.0654364C12.911 0.577104 7.59499 3.63931 4.22819 8.34588C2.35339 10.9628 1.15419 13.9313 0.700995 17.0755C0.540995 18.173 0.521393 18.4972 0.521393 19.9854C0.521393 21.4735 0.540995 21.7977 0.700995 22.8952C1.78699 30.3984 7.12619 36.7025 14.3678 39.0382C15.6646 39.4561 17.0314 39.7412 18.5862 39.9131C19.1914 39.9795 21.8082 39.9795 22.4138 39.9131C25.097 39.6163 27.3702 38.9523 29.6122 37.8078C29.9562 37.6321 30.0226 37.5852 29.9754 37.5462C29.9442 37.5227 28.4798 35.5581 26.7218 33.1833L23.527 28.8673L19.5234 22.9421C17.3206 19.6846 15.5082 17.0208 15.4926 17.0208C15.477 17.0169 15.4614 19.6495 15.4534 22.864C15.4418 28.4924 15.4378 28.7189 15.3678 28.8517C15.2662 29.0431 15.1878 29.1212 15.0238 29.2071C14.899 29.2696 14.7894 29.2813 14.1998 29.2813H13.5242L13.3442 29.1681C13.227 29.0938 13.1414 28.9962 13.0826 28.8829L13.0006 28.7072L13.0086 20.8759L13.0202 13.0407L13.1414 12.8884C13.2038 12.8064 13.3366 12.7009 13.4302 12.6502C13.5906 12.572 13.653 12.5642 14.3286 12.5642C15.1254 12.5642 15.2582 12.5955 15.4654 12.822C15.5238 12.8845 17.6914 16.1498 20.285 20.083C22.8786 24.0162 26.425 29.3868 28.167 32.0232L31.331 36.8158L31.491 36.7103C32.909 35.7885 34.4086 34.4761 35.5962 33.1091C38.123 30.207 39.7518 26.6683 40.2986 22.8952C40.459 21.7977 40.4786 21.4735 40.4786 19.9854C40.4786 18.4972 40.459 18.173 40.2986 17.0755C39.213 9.57232 33.8738 3.26825 26.6322 0.93254C25.355 0.518516 23.9958 0.233389 22.4722 0.0615304C22.0974 0.0224718 19.5158 -0.0204928 19.1914 0.0107542ZM27.3702 12.0955C27.5578 12.1892 27.7102 12.3689 27.765 12.5564C27.7962 12.658 27.8038 14.8296 27.7962 19.7237L27.7842 26.7464L26.5462 24.8482L25.3042 22.9499V17.845C25.3042 14.5445 25.3198 12.6892 25.343 12.5994C25.4058 12.3806 25.5422 12.2088 25.7298 12.1072C25.8902 12.0252 25.9486 12.0174 26.5618 12.0174C27.1398 12.0174 27.2414 12.0252 27.3702 12.0955Z" />
    </symbol>
    <symbol id="picker" viewBox="0 0 32 32">
        <g fill="currentColor"><path d="m10 20c-1.657 0-3 1.343-3 3s1.343 3 3 3 3-1.343 3-3-1.343-3-3-3zm0 4c-.551 0-1-.449-1-1s.449-1 1-1 1 .449 1 1-.449 1-1 1z"/><circle cx="10" cy="16" r="3"/><path d="m10 6c-1.657 0-3 1.343-3 3s1.343 3 3 3 3-1.343 3-3-1.343-3-3-3zm0 4c-.551 0-1-.449-1-1s.449-1 1-1 1 .449 1 1-.449 1-1 1z"/><path d="m15 8h10v2h-10z"/><path d="m15 15h10v2h-10z"/><path d="m15 22h10v2h-10z"/><path d="m10 20c-1.657 0-3 1.343-3 3s1.343 3 3 3 3-1.343 3-3-1.343-3-3-3zm0 4c-.551 0-1-.449-1-1s.449-1 1-1 1 .449 1 1-.449 1-1 1z"/><circle cx="10" cy="16" r="3"/><path d="m10 6c-1.657 0-3 1.343-3 3s1.343 3 3 3 3-1.343 3-3-1.343-3-3-3zm0 4c-.551 0-1-.449-1-1s.449-1 1-1 1 .449 1 1-.449 1-1 1z"/><path d="m15 8h10v2h-10z"/><path d="m15 15h10v2h-10z"/><path d="m15 22h10v2h-10z"/></g>
    </symbol>
    <symbol id="languages" viewBox="0 0 32 32">
        <path d="M32.032 16c0-8.501-6.677-15.472-15.072-15.969-0.173-0.019-0.346-0.032-0.523-0.032-0.052 0-0.104 0.005-0.156 0.007-0.093-0.002-0.186-0.007-0.281-0.007-8.84 0-16.032 7.178-16.032 16.001s7.192 16.001 16.032 16.001c0.094 0 0.188-0.006 0.281-0.008 0.052 0.002 0.104 0.008 0.156 0.008 0.176 0 0.349-0.012 0.523-0.032 8.395-0.497 15.072-7.468 15.072-15.969zM29.049 21.151c-0.551-0.16-1.935-0.507-4.377-0.794 0.202-1.381 0.313-2.84 0.313-4.357 0-1.196-0.069-2.354-0.197-3.469 3.094-0.37 4.45-0.835 4.54-0.867l-0.372-1.050c0.695 1.659 1.080 3.478 1.080 5.386 0 1.818-0.352 3.555-0.987 5.151zM8.921 16c0-1.119 0.074-2.212 0.21-3.263 1.621 0.127 3.561 0.222 5.839 0.243v6.939c-2.219 0.021-4.114 0.111-5.709 0.234-0.22-1.319-0.34-2.715-0.34-4.154zM16.967 2.132c2.452 0.711 4.552 4.115 5.492 8.628-1.512 0.12-3.332 0.209-5.492 0.229v-8.857zM14.971 2.156v8.832c-2.136-0.021-3.965-0.109-5.502-0.226 0.96-4.457 3.076-7.836 5.502-8.606zM14.971 21.913l0 7.929c-2.263-0.718-4.256-3.705-5.293-7.719 1.492-0.11 3.253-0.189 5.292-0.21zM16.967 29.868l-0-7.955c2.061 0.020 3.814 0.102 5.288 0.217-1.019 4.067-3 7.076-5.288 7.738zM16.967 19.92l0-6.939c2.291-0.021 4.218-0.118 5.818-0.25 0.131 1.053 0.203 2.147 0.203 3.268 0 1.442-0.116 2.84-0.329 4.16-1.575-0.128-3.462-0.219-5.692-0.24zM28.588 9.81c-0.302 0.094-1.564 0.453-4.094 0.751-0.564-2.998-1.584-5.561-2.91-7.412 3.048 1.325 5.535 3.697 7.005 6.661zM11.213 2.831c-1.632 1.873-2.963 4.568-3.691 7.754-2.265-0.245-3.623-0.534-4.166-0.665 1.585-3.27 4.407-5.836 7.856-7.088zM2.614 11.787c0.385 0.104 1.841 0.467 4.549 0.766-0.155 1.107-0.24 2.26-0.24 3.447 0 1.509 0.136 2.96 0.383 4.334-2.325 0.251-3.755 0.552-4.396 0.706-0.607-1.566-0.944-3.264-0.944-5.041 0-1.467 0.228-2.883 0.649-4.213zM3.784 22.886c0.727-0.154 2.029-0.39 3.956-0.591 0.759 2.803 1.993 5.175 3.473 6.874-3.16-1.148-5.79-3.398-7.429-6.282v0zM21.583 28.849c1.195-1.665 2.14-3.907 2.728-6.525 1.982 0.227 3.226 0.494 3.853 0.652-1.5 2.596-3.808 4.669-6.581 5.873z"></path>
    </symbol>
    <symbol id="techspecs" viewBox="0 0 175 220">
        <path class="a2" d="M69.539,119.774V0L13.23,56.351v119.39Z" transform="translate(43.121)"/><path class="b2" d="M56.351,0,0,56.351H56.351V0Z"/><path class="a2" d="M69.539,0,13.23,56.351h87.487L157.069,0Z" transform="translate(43.121)"/><path class="c2" d="M69.539,18.639,13.23,74.608V13.23H69.539Z" transform="translate(43.121 43.121)"/>
    </symbol>
    <symbol id="faq" viewBox="0 0 34 34">
        <path
            d="M17.0008 0.690674C7.96953 0.690674 0.691406 7.9688 0.691406 17C0.691406 26.0313 7.96953 33.3625 17.0008 33.3625C26.032 33.3625 33.3633 26.0313 33.3633 17C33.3633 7.9688 26.032 0.690674 17.0008 0.690674ZM17.0008 31.5032C9.03203 31.5032 2.55078 24.9688 2.55078 17C2.55078 9.0313 9.03203 2.55005 17.0008 2.55005C24.9695 2.55005 31.5039 9.0313 31.5039 17C31.5039 24.9688 24.9695 31.5032 17.0008 31.5032Z" />
        <path
            d="M17.9039 6.32194C16.3633 6.05631 14.8227 6.48131 13.707 7.43756C12.5383 8.39381 11.8477 9.82819 11.8477 11.3688C11.8477 11.9532 11.9539 12.5376 12.1664 13.0688C12.3258 13.5469 12.857 13.8126 13.3352 13.6532C13.8133 13.4938 14.0789 12.9626 13.9195 12.4844C13.8133 12.1126 13.707 11.7938 13.707 11.3688C13.707 10.4126 14.132 9.50944 14.8758 8.87194C15.6195 8.23444 16.5758 7.96881 17.5852 8.18131C18.9133 8.39381 19.9758 9.50944 20.1883 10.7844C20.4539 12.3251 19.657 13.8126 18.2227 14.3969C16.8945 14.9282 16.0445 16.2563 16.0445 17.7969V21.1969C16.0445 21.7282 16.4695 22.1532 17.0008 22.1532C17.532 22.1532 17.957 21.7282 17.957 21.1969V17.7969C17.957 17.0532 18.382 16.3626 18.9664 16.1501C21.1977 15.2469 22.4727 12.9094 22.0477 10.4657C21.6758 8.39381 19.9758 6.69381 17.9039 6.32194Z" />
        <path
            d="M17.0531 24.8625H16.8937C16.3625 24.8625 15.9375 25.2875 15.9375 25.8188C15.9375 26.35 16.3625 26.7751 16.8937 26.7751H17.0531C17.5844 26.7751 18.0094 26.35 18.0094 25.8188C18.0094 25.2875 17.5844 24.8625 17.0531 24.8625Z" />
    </symbol>
    <symbol id="logo" viewBox="0 0 1850 354">
        <path fill-rule="evenodd" fill="currentColor" d="M313.000,229.000 C272.494,229.000 269.939,229.329 263.003,225.541 C259.158,223.441 255.837,220.586 253.040,216.966 C250.243,213.351 248.031,209.091 246.398,204.191 C244.770,199.291 243.951,194.041 243.951,188.441 C243.951,182.611 244.885,177.241 246.748,172.341 C248.616,167.441 251.117,163.186 254.264,159.566 C257.410,155.951 261.026,153.151 265.100,151.166 C269.181,149.186 273.316,148.191 277.510,148.191 C277.510,148.191 314.988,148.141 351.637,148.092 C353.183,157.501 354.000,167.154 354.000,177.000 C354.000,194.922 351.327,212.217 346.374,228.520 C330.233,228.758 313.010,228.983 313.000,229.000 ZM246.511,339.821 L288.347,271.041 C288.347,271.041 308.164,237.121 313.000,229.000 C312.839,229.000 330.153,228.766 346.374,228.520 C331.131,278.695 294.211,319.431 246.511,339.821 ZM242.728,113.016 C233.060,117.801 224.724,124.101 217.733,131.916 C210.741,139.736 205.268,148.601 201.303,158.516 C197.343,168.436 195.360,178.411 195.360,188.441 C195.360,204.541 199.380,219.186 207.420,232.366 C215.461,245.551 226.358,255.061 240.106,260.891 L183.255,353.878 C181.178,353.950 179.095,354.000 177.000,354.000 C97.710,354.000 30.600,301.861 8.076,230.000 C19.043,230.000 25.754,230.000 26.000,230.000 C36.862,230.000 82.000,229.700 82.000,229.700 C93.430,229.700 103.930,227.370 113.500,222.700 C123.065,218.035 131.230,211.850 138.000,204.150 C144.765,196.450 150.015,187.645 153.750,177.725 C157.480,167.810 159.350,157.600 159.350,147.100 C159.350,137.070 157.365,127.095 153.400,117.175 C149.430,107.260 143.950,98.395 136.950,90.575 C129.950,82.760 121.605,76.460 111.925,71.675 C102.240,66.895 91.680,64.500 80.250,64.500 C80.250,64.500 70.499,64.000 54.000,64.000 C49.938,64.000 45.499,64.000 40.766,64.000 C73.233,24.901 122.207,0.000 177.000,0.000 C249.465,0.000 311.748,43.554 339.129,105.906 L274.364,105.841 C262.948,105.841 252.401,108.236 242.728,113.016 ZM89.525,109.475 C93.605,111.225 97.165,113.850 100.200,117.350 C103.230,120.850 105.680,125.110 107.550,130.125 C109.415,135.145 110.350,140.800 110.350,147.100 C110.350,159.470 107.375,169.270 101.425,176.500 C95.475,183.735 87.865,187.000 79.000,187.000 L0.287,187.000 C0.102,183.689 0.000,180.357 0.000,177.000 C0.000,152.091 5.155,128.390 14.441,106.889 L77.100,106.850 C81.300,106.850 85.440,107.725 89.525,109.475 Z"></path>
        <path fill-rule="evenodd" fill="currentColor" style="transform:translate(500px, 35px) scale(0.8)" d="M1371.505,199.765 C1374.691,202.296 1378.600,203.560 1383.220,203.560 C1387.840,203.560 1392.346,202.791 1396.750,201.250 C1401.148,199.713 1404.670,198.393 1407.310,197.290 L1416.220,232.270 C1410.280,234.910 1403.020,237.550 1394.440,240.190 C1385.860,242.830 1376.836,244.150 1367.380,244.150 C1361.218,244.150 1355.443,243.376 1350.055,241.840 C1344.661,240.303 1339.933,237.828 1335.865,234.415 C1331.791,231.006 1328.548,226.608 1326.130,221.215 C1323.706,215.826 1322.500,209.283 1322.500,201.580 L1322.500,102.250 L1299.730,102.250 L1299.730,68.260 L1322.500,68.260 L1322.500,12.160 L1366.720,12.160 L1366.720,68.260 L1403.020,68.260 L1403.020,102.250 L1366.720,102.250 L1366.720,186.730 C1366.720,192.891 1368.313,197.238 1371.505,199.765 ZM1228.453,68.260 L1272.673,68.260 L1272.673,241.180 L1228.453,241.180 L1228.453,68.260 ZM1228.453,0.280 L1272.673,0.280 L1272.673,44.170 L1228.453,44.170 L1228.453,0.280 ZM1162.453,241.180 L1112.293,166.270 L1088.533,189.700 L1088.533,241.180 L1044.313,241.180 L1044.313,0.280 L1088.533,0.280 L1088.533,146.470 L1157.833,68.590 L1205.023,68.590 L1140.673,141.850 L1209.643,241.180 L1162.453,241.180 ZM990.528,217.585 C982.824,225.835 973.368,232.383 962.148,237.220 C950.928,242.056 938.274,244.480 924.198,244.480 C910.116,244.480 897.468,242.056 886.248,237.220 C875.028,232.383 865.509,225.835 857.703,217.585 C849.891,209.335 843.894,199.821 839.718,189.040 C835.536,178.263 833.448,166.930 833.448,155.050 C833.448,142.953 835.536,131.511 839.718,120.730 C843.894,109.953 849.891,100.435 857.703,92.185 C865.509,83.935 875.028,77.391 886.248,72.550 C897.468,67.713 910.116,65.290 924.198,65.290 C938.274,65.290 950.871,67.713 961.983,72.550 C973.089,77.391 982.551,83.935 990.363,92.185 C998.169,100.435 1004.166,109.953 1008.348,120.730 C1012.524,131.511 1014.618,142.953 1014.618,155.050 C1014.618,166.930 1012.524,178.263 1008.348,189.040 C1004.166,199.821 998.226,209.335 990.528,217.585 ZM965.943,133.930 C963.633,127.551 960.441,122.050 956.373,117.430 C952.299,112.810 947.514,109.236 942.018,106.705 C936.516,104.178 930.576,102.910 924.198,102.910 C917.814,102.910 911.874,104.230 906.378,106.870 C900.876,109.510 896.091,113.140 892.023,117.760 C887.949,122.380 884.763,127.881 882.453,134.260 C880.143,140.643 878.988,147.573 878.988,155.050 C878.988,162.753 880.143,169.735 882.453,176.005 C884.763,182.275 887.949,187.720 892.023,192.340 C896.091,196.960 900.876,200.538 906.378,203.065 C911.874,205.596 917.814,206.860 924.198,206.860 C930.576,206.860 936.516,205.596 942.018,203.065 C947.514,200.538 952.299,196.960 956.373,192.340 C960.441,187.720 963.633,182.223 965.943,175.840 C968.253,169.461 969.408,162.423 969.408,154.720 C969.408,147.243 968.253,140.313 965.943,133.930 ZM761.508,144.160 C761.508,130.300 759.141,120.183 754.413,113.800 C749.679,107.421 743.136,104.230 734.778,104.230 C725.976,104.230 717.726,107.586 710.028,114.295 C702.324,121.008 696.828,129.753 693.528,140.530 L693.528,241.180 L649.308,241.180 L649.308,144.160 C649.308,130.300 646.941,120.183 642.213,113.800 C637.479,107.421 630.936,104.230 622.578,104.230 C613.998,104.230 605.799,107.530 597.993,114.130 C590.181,120.730 584.628,129.423 581.328,140.200 L581.328,241.180 L537.108,241.180 L537.108,68.260 L577.038,68.260 L577.038,100.270 C583.416,89.050 592.161,80.418 603.273,74.365 C614.379,68.316 627.084,65.290 641.388,65.290 C655.908,65.290 667.128,68.811 675.048,75.850 C682.968,82.893 688.026,91.581 690.228,101.920 C697.266,90.040 706.176,80.965 716.958,74.695 C727.734,68.425 740.058,65.290 753.918,65.290 C764.478,65.290 773.166,67.270 779.988,71.230 C786.804,75.190 792.084,80.361 795.828,86.740 C799.566,93.123 802.149,100.383 803.583,108.520 C805.011,116.661 805.728,124.911 805.728,133.270 L805.728,241.180 L761.508,241.180 L761.508,144.160 ZM483.322,217.585 C475.618,225.835 466.162,232.383 454.942,237.220 C443.722,242.056 431.068,244.480 416.992,244.480 C402.910,244.480 390.262,242.056 379.042,237.220 C367.822,232.383 358.303,225.835 350.497,217.585 C342.685,209.335 336.688,199.821 332.512,189.040 C328.330,178.263 326.242,166.930 326.242,155.050 C326.242,142.953 328.330,131.511 332.512,120.730 C336.688,109.953 342.685,100.435 350.497,92.185 C358.303,83.935 367.822,77.391 379.042,72.550 C390.262,67.713 402.910,65.290 416.992,65.290 C431.068,65.290 443.665,67.713 454.777,72.550 C465.883,77.391 475.345,83.935 483.157,92.185 C490.963,100.435 496.960,109.953 501.142,120.730 C505.318,131.511 507.412,142.953 507.412,155.050 C507.412,166.930 505.318,178.263 501.142,189.040 C496.960,199.821 491.020,209.335 483.322,217.585 ZM458.737,133.930 C456.427,127.551 453.235,122.050 449.167,117.430 C445.093,112.810 440.308,109.236 434.812,106.705 C429.310,104.178 423.370,102.910 416.992,102.910 C410.608,102.910 404.668,104.230 399.172,106.870 C393.670,109.510 388.885,113.140 384.817,117.760 C380.743,122.380 377.557,127.881 375.247,134.260 C372.937,140.643 371.782,147.573 371.782,155.050 C371.782,162.753 372.937,169.735 375.247,176.005 C377.557,182.275 380.743,187.720 384.817,192.340 C388.885,196.960 393.670,200.538 399.172,203.065 C404.668,205.596 410.608,206.860 416.992,206.860 C423.370,206.860 429.310,205.596 434.812,203.065 C440.308,200.538 445.093,196.960 449.167,192.340 C453.235,187.720 456.427,182.223 458.737,175.840 C461.047,169.461 462.202,162.423 462.202,154.720 C462.202,147.243 461.047,140.313 458.737,133.930 ZM276.414,114.295 C265.854,119.245 258.264,126.670 253.644,136.570 L253.644,241.180 L209.424,241.180 L209.424,68.260 L250.014,68.260 L250.014,105.220 C253.092,99.280 256.722,93.948 260.904,89.215 C265.081,84.486 269.592,80.361 274.434,76.840 C279.271,73.323 284.169,70.626 289.119,68.755 C294.069,66.888 298.854,65.950 303.474,65.950 C305.892,65.950 307.707,65.950 308.919,65.950 C310.126,65.950 311.281,66.063 312.384,66.280 L312.384,106.540 C298.962,106.761 286.974,109.345 276.414,114.295 ZM158.113,218.410 C151.400,226.551 143.428,232.930 134.188,237.550 C124.948,242.170 114.826,244.480 103.828,244.480 C90.185,244.480 78.305,241.453 68.188,235.405 C58.066,229.356 50.146,221.163 44.428,210.820 L44.428,311.470 L0.208,311.470 L0.208,68.260 L38.818,68.260 L38.818,97.960 C45.196,87.843 53.446,79.866 63.568,74.035 C73.685,68.208 85.348,65.290 98.548,65.290 C110.206,65.290 120.988,67.656 130.888,72.385 C140.788,77.118 149.311,83.496 156.463,91.525 C163.610,99.558 169.220,109.015 173.293,119.905 C177.361,130.795 179.398,142.293 179.398,154.390 C179.398,166.930 177.526,178.701 173.788,189.700 C170.045,200.703 164.821,210.273 158.113,218.410 ZM130.558,134.095 C128.135,127.825 124.783,122.380 120.493,117.760 C116.203,113.140 111.140,109.510 105.313,106.870 C99.481,104.230 93.155,102.910 86.338,102.910 C82.156,102.910 77.866,103.626 73.468,105.055 C69.065,106.488 64.996,108.520 61.258,111.160 C57.515,113.800 54.163,116.883 51.193,120.400 C48.223,123.921 45.965,127.773 44.428,131.950 L44.428,172.540 C48.388,182.440 54.436,190.638 62.578,197.125 C70.715,203.616 79.516,206.860 88.978,206.860 C95.578,206.860 101.683,205.431 107.293,202.570 C112.903,199.713 117.688,195.861 121.648,191.020 C125.608,186.183 128.686,180.573 130.888,174.190 C133.085,167.811 134.188,161.211 134.188,154.390 C134.188,147.130 132.976,140.365 130.558,134.095 Z"></path>
    </symbol>
    <symbol id="darkswitcher" viewBox="0 0 24 24">
        <path d="M13.3125 1.50001C12.675 1.31251 12.0375 1.16251 11.3625 1.05001C10.875 0.975006 10.35 1.23751 10.1625 1.68751C9.93751 2.13751 10.05 2.70001 10.425 3.00001C13.0875 5.47501 14.0625 9.11251 12.975 12.525C11.775 16.3125 8.25001 18.975 4.16251 19.0875C3.63751 19.0875 3.22501 19.425 3.07501 19.9125C2.92501 20.4 3.15001 20.925 3.56251 21.1875C4.50001 21.75 5.43751 22.2 6.37501 22.5C7.46251 22.8375 8.58751 22.9875 9.71251 22.9875C11.625 22.9875 13.5 22.5 15.1875 21.5625C17.85 20.1 19.725 17.7375 20.55 14.8875C22.1625 9.26251 18.975 3.37501 13.3125 1.50001ZM18.9375 14.4C18.2625 16.8375 16.6125 18.825 14.4 20.0625C12.075 21.3375 9.41251 21.6 6.90001 20.85C6.63751 20.775 6.33751 20.6625 6.07501 20.55C10.05 19.7625 13.35 16.9125 14.5875 13.0125C15.675 9.56251 15 5.92501 12.7875 3.07501C17.5875 4.68751 20.2875 9.67501 18.9375 14.4Z" />
    </symbol>
    <symbol id="email" viewBox="0 0 34 25">
        <path d="M30.5156 0.960938H3.17188C1.42188 0.960938 0 2.38281 0 4.13281V20.9219C0 22.6719 1.42188 24.0938 3.17188 24.0938H30.5156C32.2656 24.0938 33.6875 22.6719 33.6875 20.9219V4.13281C33.6875 2.38281 32.2656 0.960938 30.5156 0.960938ZM30.5156 2.875C30.7891 2.875 31.0078 2.92969 31.2266 3.09375L17.6094 11.3516C17.1172 11.625 16.5703 11.625 16.0781 11.3516L2.46094 3.09375C2.67969 2.98438 2.89844 2.875 3.17188 2.875H30.5156ZM30.5156 22.125H3.17188C2.51562 22.125 1.91406 21.5781 1.91406 20.8672V5.00781L15.0391 12.9922C15.5859 13.3203 16.1875 13.4844 16.7891 13.4844C17.3906 13.4844 17.9922 13.3203 18.5391 12.9922L31.6641 5.00781V20.8672C31.7734 21.5781 31.1719 22.125 30.5156 22.125Z" />
    </symbol>
    <symbol id="location" viewBox="0 0 29 35">
        <path
            d="M14.5 0.710938C6.89844 0.710938 0.664062 6.72656 0.664062 14.0547C0.664062 19.9062 9.03125 29.5859 12.6406 33.5234C13.1328 34.0703 13.7891 34.3437 14.5 34.3437C15.2109 34.3437 15.8672 34.0703 16.3594 33.5234C19.9688 29.6406 28.3359 19.9062 28.3359 14.0547C28.3359 6.67188 22.1016 0.710938 14.5 0.710938ZM14.9375 32.2109C14.6641 32.4844 14.2812 32.4844 14.0625 32.2109C11.3828 29.3125 2.57812 19.3594 2.57812 14.0547C2.57812 7.71094 7.9375 2.625 14.5 2.625C21.0625 2.625 26.4219 7.76562 26.4219 14.0547C26.4219 19.3594 17.6172 29.2578 14.9375 32.2109Z" />
        <path
            d="M14.5 8.58594C11.2734 8.58594 8.59375 11.2109 8.59375 14.4922C8.59375 17.7188 11.2187 20.3984 14.5 20.3984C17.7812 20.3984 20.4062 17.7734 20.4062 14.4922C20.4062 11.2109 17.7266 8.58594 14.5 8.58594ZM14.5 18.4297C12.3125 18.4297 10.5078 16.625 10.5078 14.4375C10.5078 12.25 12.3125 10.4453 14.5 10.4453C16.6875 10.4453 18.4922 12.25 18.4922 14.4375C18.4922 16.625 16.6875 18.4297 14.5 18.4297Z" />
    </symbol>
    <symbol id="lightswitcher" viewBox="0 0 24 24">
        <g clip-path="url(#clip0_2172_3070)">
            <path
                d="M12 6.89999C9.18752 6.89999 6.90002 9.18749 6.90002 12C6.90002 14.8125 9.18752 17.1 12 17.1C14.8125 17.1 17.1 14.8125 17.1 12C17.1 9.18749 14.8125 6.89999 12 6.89999ZM12 15.4125C10.125 15.4125 8.58752 13.875 8.58752 12C8.58752 10.125 10.125 8.58749 12 8.58749C13.875 8.58749 15.4125 10.125 15.4125 12C15.4125 13.875 13.875 15.4125 12 15.4125Z" />
            <path
                d="M12 4.2375C12.45 4.2375 12.8625 3.8625 12.8625 3.375V1.5C12.8625 1.05 12.4875 0.637497 12 0.637497C11.55 0.637497 11.1375 1.0125 11.1375 1.5V3.4125C11.175 3.8625 11.55 4.2375 12 4.2375Z" />
            <path
                d="M12 19.7625C11.55 19.7625 11.1375 20.1375 11.1375 20.625V22.5C11.1375 22.95 11.5125 23.3625 12 23.3625C12.45 23.3625 12.8625 22.9875 12.8625 22.5V20.5875C12.8625 20.1375 12.45 19.7625 12 19.7625Z" />
            <path
                d="M18.1125 6.74999C18.3375 6.74999 18.5625 6.67499 18.7125 6.48749L19.9125 5.28749C20.25 4.94999 20.25 4.42499 19.9125 4.08749C19.575 3.74999 19.05 3.74999 18.7125 4.08749L17.5125 5.28749C17.175 5.62499 17.175 6.14999 17.5125 6.48749C17.6625 6.67499 17.8875 6.74999 18.1125 6.74999Z" />
            <path
                d="M5.32501 17.5125L4.12501 18.675C3.78751 19.0125 3.78751 19.5375 4.12501 19.875C4.27501 20.025 4.50001 20.1375 4.72501 20.1375C4.95001 20.1375 5.17501 20.0625 5.32501 19.875L6.52501 18.675C6.86251 18.3375 6.86251 17.8125 6.52501 17.475C6.18751 17.175 5.62501 17.175 5.32501 17.5125Z" />
            <path
                d="M22.5 11.175H20.5875C20.1375 11.175 19.725 11.55 19.725 12.0375C19.725 12.4875 20.1 12.9 20.5875 12.9H22.5C22.95 12.9 23.3625 12.525 23.3625 12.0375C23.3625 11.55 22.95 11.175 22.5 11.175Z" />
            <path
                d="M4.23751 12C4.23751 11.55 3.86251 11.1375 3.37501 11.1375H1.50001C1.05001 11.1375 0.637512 11.5125 0.637512 12C0.637512 12.45 1.01251 12.8625 1.50001 12.8625H3.41251C3.86251 12.8625 4.23751 12.45 4.23751 12Z" />
            <path
                d="M18.675 17.5125C18.3375 17.175 17.8125 17.175 17.475 17.5125C17.1375 17.85 17.1375 18.375 17.475 18.7125L18.675 19.9125C18.825 20.0625 19.05 20.175 19.275 20.175C19.5 20.175 19.725 20.1 19.875 19.9125C20.2125 19.575 20.2125 19.05 19.875 18.7125L18.675 17.5125Z" />
            <path
                d="M5.32501 4.125C4.98751 3.7875 4.46251 3.7875 4.12501 4.125C3.78751 4.4625 3.78751 4.9875 4.12501 5.325L5.32501 6.525C5.47501 6.675 5.70001 6.7875 5.92501 6.7875C6.15001 6.7875 6.37501 6.7125 6.52501 6.525C6.86251 6.1875 6.86251 5.6625 6.52501 5.325L5.32501 4.125Z" />
        </g>
        <defs>
            <clipPath id="clip0_2172_3070">
                <rect width="24" height="24" fill="white" />
            </clipPath>
        </defs>
    </symbol>
    <symbol id="extension" viewBox="0 0 37 37">
        <path
            d="M12.355 2.0614H5.21129C3.29879 2.0614 1.72379 3.6364 1.72379 5.5489V12.6927C1.72379 14.6052 3.29879 16.1802 5.21129 16.1802H12.355C14.2675 16.1802 15.8425 14.6052 15.8425 12.6927V5.60515C15.8988 3.6364 14.3238 2.0614 12.355 2.0614ZM13.3675 12.7489C13.3675 13.3114 12.9175 13.7614 12.355 13.7614H5.21129C4.64879 13.7614 4.19879 13.3114 4.19879 12.7489V5.60515C4.19879 5.04265 4.64879 4.59265 5.21129 4.59265H12.355C12.9175 4.59265 13.3675 5.04265 13.3675 5.60515V12.7489Z"
            fill="currentColor" />
        <path
            d="M31.0863 2.0614H23.9425C22.03 2.0614 20.455 3.6364 20.455 5.5489V12.6927C20.455 14.6052 22.03 16.1802 23.9425 16.1802H31.0863C32.9988 16.1802 34.5738 14.6052 34.5738 12.6927V5.60515C34.5738 3.6364 32.9988 2.0614 31.0863 2.0614ZM32.0988 12.7489C32.0988 13.3114 31.6488 13.7614 31.0863 13.7614H23.9425C23.38 13.7614 22.93 13.3114 22.93 12.7489V5.60515C22.93 5.04265 23.38 4.59265 23.9425 4.59265H31.0863C31.6488 4.59265 32.0988 5.04265 32.0988 5.60515V12.7489Z"
            fill="currentColor" />
        <path
            d="M12.355 20.0051H5.21129C3.29879 20.0051 1.72379 21.5801 1.72379 23.4926V30.6364C1.72379 32.5489 3.29879 34.1239 5.21129 34.1239H12.355C14.2675 34.1239 15.8425 32.5489 15.8425 30.6364V23.5489C15.8988 21.5801 14.3238 20.0051 12.355 20.0051ZM13.3675 30.6926C13.3675 31.2551 12.9175 31.7051 12.355 31.7051H5.21129C4.64879 31.7051 4.19879 31.2551 4.19879 30.6926V23.5489C4.19879 22.9864 4.64879 22.5364 5.21129 22.5364H12.355C12.9175 22.5364 13.3675 22.9864 13.3675 23.5489V30.6926Z"
            fill="currentColor" />
        <path
            d="M31.0863 20.0051H23.9425C22.03 20.0051 20.455 21.5801 20.455 23.4926V30.6364C20.455 32.5489 22.03 34.1239 23.9425 34.1239H31.0863C32.9988 34.1239 34.5738 32.5489 34.5738 30.6364V23.5489C34.5738 21.5801 32.9988 20.0051 31.0863 20.0051ZM32.0988 30.6926C32.0988 31.2551 31.6488 31.7051 31.0863 31.7051H23.9425C23.38 31.7051 22.93 31.2551 22.93 30.6926V23.5489C22.93 22.9864 23.38 22.5364 23.9425 22.5364H31.0863C31.6488 22.5364 32.0988 22.9864 32.0988 23.5489V30.6926Z" fill="currentColor" />
    </symbol>
    <symbol id="dots2" viewBox="0 0 48 134">
        <circle cx="45.6673" cy="132" r="1.66667" transform="rotate(180 45.6673 132)" fill="currentColor" />
        <circle cx="45.6673" cy="117.333" r="1.66667" transform="rotate(180 45.6673 117.333)"
            fill="currentColor" />
        <circle cx="45.6673" cy="102.667" r="1.66667" transform="rotate(180 45.6673 102.667)"
            fill="currentColor" />
        <circle cx="45.6673" cy="88.0001" r="1.66667" transform="rotate(180 45.6673 88.0001)"
            fill="currentColor" />
        <circle cx="45.6673" cy="73.3333" r="1.66667" transform="rotate(180 45.6673 73.3333)"
            fill="currentColor" />
        <circle cx="45.6673" cy="45.0001" r="1.66667" transform="rotate(180 45.6673 45.0001)"
            fill="currentColor" />
        <circle cx="45.6673" cy="16.0001" r="1.66667" transform="rotate(180 45.6673 16.0001)"
            fill="currentColor" />
        <circle cx="45.6673" cy="59.0001" r="1.66667" transform="rotate(180 45.6673 59.0001)"
            fill="currentColor" />
        <circle cx="45.6673" cy="30.6668" r="1.66667" transform="rotate(180 45.6673 30.6668)"
            fill="currentColor" />
        <circle cx="45.6673" cy="1.66683" r="1.66667" transform="rotate(180 45.6673 1.66683)"
            fill="currentColor" />
        <circle cx="31.0006" cy="132" r="1.66667" transform="rotate(180 31.0006 132)" fill="currentColor" />
        <circle cx="31.0006" cy="117.333" r="1.66667" transform="rotate(180 31.0006 117.333)"
            fill="currentColor" />
        <circle cx="31.0006" cy="102.667" r="1.66667" transform="rotate(180 31.0006 102.667)"
            fill="currentColor" />
        <circle cx="31.0006" cy="88.0001" r="1.66667" transform="rotate(180 31.0006 88.0001)"
            fill="currentColor" />
        <circle cx="31.0008" cy="73.3333" r="1.66667" transform="rotate(180 31.0008 73.3333)"
            fill="currentColor" />
        <circle cx="31.0008" cy="45.0001" r="1.66667" transform="rotate(180 31.0008 45.0001)"
            fill="currentColor" />
        <circle cx="31.0008" cy="16.0001" r="1.66667" transform="rotate(180 31.0008 16.0001)"
            fill="currentColor" />
        <circle cx="31.0008" cy="59.0001" r="1.66667" transform="rotate(180 31.0008 59.0001)"
            fill="currentColor" />
        <circle cx="31.0008" cy="30.6668" r="1.66667" transform="rotate(180 31.0008 30.6668)"
            fill="currentColor" />
        <circle cx="31.0008" cy="1.66683" r="1.66667" transform="rotate(180 31.0008 1.66683)"
            fill="currentColor" />
        <circle cx="16.3341" cy="132" r="1.66667" transform="rotate(180 16.3341 132)" fill="currentColor" />
        <circle cx="16.3341" cy="117.333" r="1.66667" transform="rotate(180 16.3341 117.333)"
            fill="currentColor" />
        <circle cx="16.3341" cy="102.667" r="1.66667" transform="rotate(180 16.3341 102.667)"
            fill="currentColor" />
        <circle cx="16.3341" cy="88.0001" r="1.66667" transform="rotate(180 16.3341 88.0001)"
            fill="currentColor" />
        <circle cx="16.3338" cy="73.3333" r="1.66667" transform="rotate(180 16.3338 73.3333)"
            fill="currentColor" />
        <circle cx="16.3338" cy="45.0001" r="1.66667" transform="rotate(180 16.3338 45.0001)"
            fill="currentColor" />
        <circle cx="16.3338" cy="16.0001" r="1.66667" transform="rotate(180 16.3338 16.0001)"
            fill="currentColor" />
        <circle cx="16.3338" cy="59.0001" r="1.66667" transform="rotate(180 16.3338 59.0001)"
            fill="currentColor" />
        <circle cx="16.3338" cy="30.6668" r="1.66667" transform="rotate(180 16.3338 30.6668)"
            fill="currentColor" />
        <circle cx="16.3338" cy="1.66683" r="1.66667" transform="rotate(180 16.3338 1.66683)"
            fill="currentColor" />
        <circle cx="1.66732" cy="132" r="1.66667" transform="rotate(180 1.66732 132)" fill="currentColor" />
        <circle cx="1.66732" cy="117.333" r="1.66667" transform="rotate(180 1.66732 117.333)"
            fill="currentColor" />
        <circle cx="1.66732" cy="102.667" r="1.66667" transform="rotate(180 1.66732 102.667)"
            fill="currentColor" />
        <circle cx="1.66732" cy="88.0001" r="1.66667" transform="rotate(180 1.66732 88.0001)"
            fill="currentColor" />
        <circle cx="1.66732" cy="73.3333" r="1.66667" transform="rotate(180 1.66732 73.3333)"
            fill="currentColor" />
        <circle cx="1.66732" cy="45.0001" r="1.66667" transform="rotate(180 1.66732 45.0001)"
            fill="currentColor" />
        <circle cx="1.66732" cy="16.0001" r="1.66667" transform="rotate(180 1.66732 16.0001)"
            fill="currentColor" />
        <circle cx="1.66732" cy="59.0001" r="1.66667" transform="rotate(180 1.66732 59.0001)"
            fill="currentColor" />
        <circle cx="1.66732" cy="30.6668" r="1.66667" transform="rotate(180 1.66732 30.6668)"
            fill="currentColor" />
        <circle cx="1.66732" cy="1.66683" r="1.66667" transform="rotate(180 1.66732 1.66683)"
            fill="currentColor" />
    </symbol>
    <symbol id="dots" viewBox="0 0 134 106">
        <circle cx="1.66667" cy="104" r="1.66667" transform="rotate(-90 1.66667 104)"
            fill="white" />
        <circle cx="16.3333" cy="104" r="1.66667" transform="rotate(-90 16.3333 104)"
            fill="white" />
        <circle cx="31" cy="104" r="1.66667" transform="rotate(-90 31 104)" fill="white" />
        <circle cx="45.6667" cy="104" r="1.66667" transform="rotate(-90 45.6667 104)"
            fill="white" />
        <circle cx="60.3333" cy="104" r="1.66667" transform="rotate(-90 60.3333 104)"
            fill="white" />
        <circle cx="88.6667" cy="104" r="1.66667" transform="rotate(-90 88.6667 104)"
            fill="white" />
        <circle cx="117.667" cy="104" r="1.66667" transform="rotate(-90 117.667 104)"
            fill="white" />
        <circle cx="74.6667" cy="104" r="1.66667" transform="rotate(-90 74.6667 104)"
            fill="white" />
        <circle cx="103" cy="104" r="1.66667" transform="rotate(-90 103 104)" fill="white" />
        <circle cx="132" cy="104" r="1.66667" transform="rotate(-90 132 104)" fill="white" />
        <circle cx="1.66667" cy="89.3333" r="1.66667" transform="rotate(-90 1.66667 89.3333)"
            fill="white" />
        <circle cx="16.3333" cy="89.3333" r="1.66667" transform="rotate(-90 16.3333 89.3333)"
            fill="white" />
        <circle cx="31" cy="89.3333" r="1.66667" transform="rotate(-90 31 89.3333)"
            fill="white" />
        <circle cx="45.6667" cy="89.3333" r="1.66667" transform="rotate(-90 45.6667 89.3333)"
            fill="white" />
        <circle cx="60.3333" cy="89.3338" r="1.66667" transform="rotate(-90 60.3333 89.3338)"
            fill="white" />
        <circle cx="88.6667" cy="89.3338" r="1.66667" transform="rotate(-90 88.6667 89.3338)"
            fill="white" />
        <circle cx="117.667" cy="89.3338" r="1.66667" transform="rotate(-90 117.667 89.3338)"
            fill="white" />
        <circle cx="74.6667" cy="89.3338" r="1.66667" transform="rotate(-90 74.6667 89.3338)"
            fill="white" />
        <circle cx="103" cy="89.3338" r="1.66667" transform="rotate(-90 103 89.3338)"
            fill="white" />
        <circle cx="132" cy="89.3338" r="1.66667" transform="rotate(-90 132 89.3338)"
            fill="white" />
        <circle cx="1.66667" cy="74.6673" r="1.66667" transform="rotate(-90 1.66667 74.6673)"
            fill="white" />
        <circle cx="1.66667" cy="31.0003" r="1.66667" transform="rotate(-90 1.66667 31.0003)"
            fill="white" />
        <circle cx="16.3333" cy="74.6668" r="1.66667" transform="rotate(-90 16.3333 74.6668)"
            fill="white" />
        <circle cx="16.3333" cy="31.0003" r="1.66667" transform="rotate(-90 16.3333 31.0003)"
            fill="white" />
        <circle cx="31" cy="74.6668" r="1.66667" transform="rotate(-90 31 74.6668)"
            fill="white" />
        <circle cx="31" cy="31.0003" r="1.66667" transform="rotate(-90 31 31.0003)"
            fill="white" />
        <circle cx="45.6667" cy="74.6668" r="1.66667" transform="rotate(-90 45.6667 74.6668)"
            fill="white" />
        <circle cx="45.6667" cy="31.0003" r="1.66667" transform="rotate(-90 45.6667 31.0003)"
            fill="white" />
        <circle cx="60.3333" cy="74.6668" r="1.66667" transform="rotate(-90 60.3333 74.6668)"
            fill="white" />
        <circle cx="60.3333" cy="31.0001" r="1.66667" transform="rotate(-90 60.3333 31.0001)"
            fill="white" />
        <circle cx="88.6667" cy="74.6668" r="1.66667" transform="rotate(-90 88.6667 74.6668)"
            fill="white" />
        <circle cx="88.6667" cy="31.0001" r="1.66667" transform="rotate(-90 88.6667 31.0001)"
            fill="white" />
        <circle cx="117.667" cy="74.6668" r="1.66667" transform="rotate(-90 117.667 74.6668)"
            fill="white" />
        <circle cx="117.667" cy="31.0001" r="1.66667" transform="rotate(-90 117.667 31.0001)"
            fill="white" />
        <circle cx="74.6667" cy="74.6668" r="1.66667" transform="rotate(-90 74.6667 74.6668)"
            fill="white" />
        <circle cx="74.6667" cy="31.0001" r="1.66667" transform="rotate(-90 74.6667 31.0001)"
            fill="white" />
        <circle cx="103" cy="74.6668" r="1.66667" transform="rotate(-90 103 74.6668)"
            fill="white" />
        <circle cx="103" cy="31.0001" r="1.66667" transform="rotate(-90 103 31.0001)"
            fill="white" />
        <circle cx="132" cy="74.6668" r="1.66667" transform="rotate(-90 132 74.6668)"
            fill="white" />
        <circle cx="132" cy="31.0001" r="1.66667" transform="rotate(-90 132 31.0001)"
            fill="white" />
        <circle cx="1.66667" cy="60.0003" r="1.66667" transform="rotate(-90 1.66667 60.0003)"
            fill="white" />
        <circle cx="1.66667" cy="16.3336" r="1.66667" transform="rotate(-90 1.66667 16.3336)"
            fill="white" />
        <circle cx="16.3333" cy="60.0003" r="1.66667" transform="rotate(-90 16.3333 60.0003)"
            fill="white" />
        <circle cx="16.3333" cy="16.3336" r="1.66667" transform="rotate(-90 16.3333 16.3336)"
            fill="white" />
        <circle cx="31" cy="60.0003" r="1.66667" transform="rotate(-90 31 60.0003)"
            fill="white" />
        <circle cx="31" cy="16.3336" r="1.66667" transform="rotate(-90 31 16.3336)"
            fill="white" />
        <circle cx="45.6667" cy="60.0003" r="1.66667" transform="rotate(-90 45.6667 60.0003)"
            fill="white" />
        <circle cx="45.6667" cy="16.3336" r="1.66667" transform="rotate(-90 45.6667 16.3336)"
            fill="white" />
        <circle cx="60.3333" cy="60.0003" r="1.66667" transform="rotate(-90 60.3333 60.0003)"
            fill="white" />
        <circle cx="60.3333" cy="16.3336" r="1.66667" transform="rotate(-90 60.3333 16.3336)"
            fill="white" />
        <circle cx="88.6667" cy="60.0003" r="1.66667" transform="rotate(-90 88.6667 60.0003)"
            fill="white" />
        <circle cx="88.6667" cy="16.3336" r="1.66667" transform="rotate(-90 88.6667 16.3336)"
            fill="white" />
        <circle cx="117.667" cy="60.0003" r="1.66667" transform="rotate(-90 117.667 60.0003)"
            fill="white" />
        <circle cx="117.667" cy="16.3336" r="1.66667" transform="rotate(-90 117.667 16.3336)"
            fill="white" />
        <circle cx="74.6667" cy="60.0003" r="1.66667" transform="rotate(-90 74.6667 60.0003)"
            fill="white" />
        <circle cx="74.6667" cy="16.3336" r="1.66667" transform="rotate(-90 74.6667 16.3336)"
            fill="white" />
        <circle cx="103" cy="60.0003" r="1.66667" transform="rotate(-90 103 60.0003)"
            fill="white" />
        <circle cx="103" cy="16.3336" r="1.66667" transform="rotate(-90 103 16.3336)"
            fill="white" />
        <circle cx="132" cy="60.0003" r="1.66667" transform="rotate(-90 132 60.0003)"
            fill="white" />
        <circle cx="132" cy="16.3336" r="1.66667" transform="rotate(-90 132 16.3336)"
            fill="white" />
        <circle cx="1.66667" cy="45.3336" r="1.66667" transform="rotate(-90 1.66667 45.3336)"
            fill="white" />
        <circle cx="1.66667" cy="1.66683" r="1.66667" transform="rotate(-90 1.66667 1.66683)"
            fill="white" />
        <circle cx="16.3333" cy="45.3336" r="1.66667" transform="rotate(-90 16.3333 45.3336)"
            fill="white" />
        <circle cx="16.3333" cy="1.66683" r="1.66667" transform="rotate(-90 16.3333 1.66683)"
            fill="white" />
        <circle cx="31" cy="45.3336" r="1.66667" transform="rotate(-90 31 45.3336)"
            fill="white" />
        <circle cx="31" cy="1.66683" r="1.66667" transform="rotate(-90 31 1.66683)"
            fill="white" />
        <circle cx="45.6667" cy="45.3336" r="1.66667" transform="rotate(-90 45.6667 45.3336)"
            fill="white" />
        <circle cx="45.6667" cy="1.66683" r="1.66667" transform="rotate(-90 45.6667 1.66683)"
            fill="white" />
        <circle cx="60.3333" cy="45.3338" r="1.66667" transform="rotate(-90 60.3333 45.3338)"
            fill="white" />
        <circle cx="60.3333" cy="1.66707" r="1.66667" transform="rotate(-90 60.3333 1.66707)"
            fill="white" />
        <circle cx="88.6667" cy="45.3338" r="1.66667" transform="rotate(-90 88.6667 45.3338)"
            fill="white" />
        <circle cx="88.6667" cy="1.66707" r="1.66667" transform="rotate(-90 88.6667 1.66707)"
            fill="white" />
        <circle cx="117.667" cy="45.3338" r="1.66667" transform="rotate(-90 117.667 45.3338)"
            fill="white" />
        <circle cx="117.667" cy="1.66707" r="1.66667" transform="rotate(-90 117.667 1.66707)"
            fill="white" />
        <circle cx="74.6667" cy="45.3338" r="1.66667" transform="rotate(-90 74.6667 45.3338)"
            fill="white" />
        <circle cx="74.6667" cy="1.66707" r="1.66667" transform="rotate(-90 74.6667 1.66707)"
            fill="white" />
        <circle cx="103" cy="45.3338" r="1.66667" transform="rotate(-90 103 45.3338)"
            fill="white" />
        <circle cx="103" cy="1.66707" r="1.66667" transform="rotate(-90 103 1.66707)"
            fill="white" />
        <circle cx="132" cy="45.3338" r="1.66667" transform="rotate(-90 132 45.3338)"
            fill="white" />
        <circle cx="132" cy="1.66707" r="1.66667" transform="rotate(-90 132 1.66707)"
            fill="white" />
    </symbol>
</defs>
</svg>